<svg width="396" height="47" viewBox="0 0 396 47" fill="none" xmlns="http://www.w3.org/2000/svg">
<path d="M19.032 46.768C15.4907 46.768 12.056 46.2987 8.728 45.36C5.44267 44.3787 2.79733 43.12 0.792 41.584L4.312 33.776C6.232 35.184 8.51467 36.3147 11.16 37.168C13.8053 38.0213 16.4507 38.448 19.096 38.448C22.04 38.448 24.216 38.0213 25.624 37.168C27.032 36.272 27.736 35.0987 27.736 33.648C27.736 32.5813 27.3093 31.7067 26.456 31.024C25.6453 30.2987 24.5787 29.7227 23.256 29.296C21.976 28.8693 20.2267 28.4 18.008 27.888C14.5947 27.0773 11.8 26.2667 9.624 25.456C7.448 24.6453 5.57067 23.344 3.992 21.552C2.456 19.76 1.688 17.3707 1.688 14.384C1.688 11.7813 2.392 9.43467 3.8 7.344C5.208 5.21066 7.32 3.52533 10.136 2.288C12.9947 1.05067 16.472 0.431999 20.568 0.431999C23.4267 0.431999 26.2213 0.773332 28.952 1.456C31.6827 2.13867 34.072 3.12 36.12 4.4L32.92 12.272C28.7813 9.92533 24.6427 8.752 20.504 8.752C17.6027 8.752 15.448 9.22133 14.04 10.16C12.6747 11.0987 11.992 12.336 11.992 13.872C11.992 15.408 12.7813 16.56 14.36 17.328C15.9813 18.0533 18.4347 18.7787 21.72 19.504C25.1333 20.3147 27.928 21.1253 30.104 21.936C32.28 22.7467 34.136 24.0267 35.672 25.776C37.2507 27.5253 38.04 29.8933 38.04 32.88C38.04 35.44 37.3147 37.7867 35.864 39.92C34.456 42.0107 32.3227 43.6747 29.464 44.912C26.6053 46.1493 23.128 46.768 19.032 46.768ZM88.5165 11.056C92.8258 11.056 96.2392 12.336 98.7565 14.896C101.317 17.4133 102.597 21.2107 102.597 26.288V46H92.6125V27.824C92.6125 25.0933 92.0365 23.0667 90.8845 21.744C89.7752 20.3787 88.1752 19.696 86.0845 19.696C83.7378 19.696 81.8818 20.464 80.5165 22C79.1512 23.4933 78.4685 25.7333 78.4685 28.72V46H68.4845V27.824C68.4845 22.4053 66.3085 19.696 61.9565 19.696C59.6525 19.696 57.8178 20.464 56.4525 22C55.0872 23.4933 54.4045 25.7333 54.4045 28.72V46H44.4205V11.568H53.9565V15.536C55.2365 14.0853 56.7938 12.976 58.6285 12.208C60.5058 11.44 62.5538 11.056 64.7725 11.056C67.2045 11.056 69.4018 11.5467 71.3645 12.528C73.3272 13.4667 74.9058 14.8533 76.1005 16.688C77.5085 14.896 79.2792 13.5093 81.4125 12.528C83.5885 11.5467 85.9565 11.056 88.5165 11.056ZM146.865 11.568V46H137.329V42.032C134.854 45.0187 131.27 46.512 126.577 46.512C123.334 46.512 120.39 45.7867 117.745 44.336C115.142 42.8853 113.094 40.816 111.601 38.128C110.107 35.44 109.361 32.3253 109.361 28.784C109.361 25.2427 110.107 22.128 111.601 19.44C113.094 16.752 115.142 14.6827 117.745 13.232C120.39 11.7813 123.334 11.056 126.577 11.056C130.971 11.056 134.406 12.4427 136.881 15.216V11.568H146.865ZM128.305 38.32C130.822 38.32 132.913 37.4667 134.577 35.76C136.241 34.0107 137.073 31.6853 137.073 28.784C137.073 25.8827 136.241 23.5787 134.577 21.872C132.913 20.1227 130.822 19.248 128.305 19.248C125.745 19.248 123.633 20.1227 121.969 21.872C120.305 23.5787 119.473 25.8827 119.473 28.784C119.473 31.6853 120.305 34.0107 121.969 35.76C123.633 37.4667 125.745 38.32 128.305 38.32ZM165.644 16.112C166.839 14.448 168.439 13.1893 170.444 12.336C172.492 11.4827 174.839 11.056 177.484 11.056V20.272C176.375 20.1867 175.628 20.144 175.244 20.144C172.385 20.144 170.145 20.9547 168.524 22.576C166.903 24.1547 166.092 26.544 166.092 29.744V46H156.108V11.568H165.644V16.112ZM204.157 44.336C203.175 45.0613 201.959 45.616 200.509 46C199.101 46.3413 197.629 46.512 196.093 46.512C191.954 46.512 188.775 45.4667 186.557 43.376C184.338 41.2853 183.229 38.2133 183.229 34.16V3.952H193.213V12.336H201.725V20.016H193.213V34.032C193.213 35.4827 193.575 36.6133 194.301 37.424C195.026 38.192 196.071 38.576 197.437 38.576C198.973 38.576 200.338 38.1493 201.533 37.296L204.157 44.336Z" fill="white"/>
<path d="M249.924 1.2V46H245.252V25.328H217.22V46H212.484V1.2H217.22V21.168H245.252V1.2H249.924ZM277.346 46.32C274.103 46.32 271.181 45.5947 268.578 44.144C265.975 42.6507 263.927 40.6027 262.434 38C260.941 35.3973 260.194 32.4533 260.194 29.168C260.194 25.8827 260.941 22.9387 262.434 20.336C263.927 17.7333 265.975 15.7067 268.578 14.256C271.181 12.8053 274.103 12.08 277.346 12.08C280.589 12.08 283.511 12.8053 286.114 14.256C288.717 15.7067 290.743 17.7333 292.194 20.336C293.687 22.9387 294.434 25.8827 294.434 29.168C294.434 32.4533 293.687 35.3973 292.194 38C290.743 40.6027 288.717 42.6507 286.114 44.144C283.511 45.5947 280.589 46.32 277.346 46.32ZM277.346 42.288C279.735 42.288 281.869 41.7547 283.746 40.688C285.666 39.5787 287.159 38.0213 288.226 36.016C289.293 34.0107 289.826 31.728 289.826 29.168C289.826 26.608 289.293 24.3253 288.226 22.32C287.159 20.3147 285.666 18.7787 283.746 17.712C281.869 16.6027 279.735 16.048 277.346 16.048C274.957 16.048 272.802 16.6027 270.882 17.712C269.005 18.7787 267.511 20.3147 266.402 22.32C265.335 24.3253 264.802 26.608 264.802 29.168C264.802 31.728 265.335 34.0107 266.402 36.016C267.511 38.0213 269.005 39.5787 270.882 40.688C272.802 41.7547 274.957 42.288 277.346 42.288ZM334.047 12.336V46H329.695V39.856C328.5 41.904 326.858 43.504 324.767 44.656C322.676 45.7653 320.287 46.32 317.599 46.32C313.204 46.32 309.727 45.104 307.167 42.672C304.65 40.1973 303.391 36.592 303.391 31.856V12.336H307.935V31.408C307.935 34.9493 308.81 37.6373 310.559 39.472C312.308 41.3067 314.804 42.224 318.047 42.224C321.588 42.224 324.383 41.1573 326.431 39.024C328.479 36.848 329.503 33.84 329.503 30V12.336H334.047ZM351.126 18.928C352.192 16.6667 353.771 14.96 355.862 13.808C357.995 12.656 360.619 12.08 363.734 12.08V16.496L362.646 16.432C359.104 16.432 356.331 17.52 354.326 19.696C352.32 21.872 351.318 24.9227 351.318 28.848V46H346.774V12.336H351.126V18.928ZM381.235 46.32C378.504 46.32 375.88 45.936 373.363 45.168C370.888 44.3573 368.947 43.3547 367.539 42.16L369.587 38.576C370.995 39.6853 372.766 40.6027 374.899 41.328C377.032 42.0107 379.251 42.352 381.555 42.352C384.627 42.352 386.888 41.8827 388.339 40.944C389.832 39.9627 390.579 38.5973 390.579 36.848C390.579 35.6107 390.174 34.6507 389.363 33.968C388.552 33.2427 387.528 32.7093 386.291 32.368C385.054 31.984 383.411 31.6213 381.363 31.28C378.632 30.768 376.435 30.256 374.771 29.744C373.107 29.1893 371.678 28.272 370.483 26.992C369.331 25.712 368.755 23.9413 368.755 21.68C368.755 18.864 369.928 16.56 372.275 14.768C374.622 12.976 377.886 12.08 382.067 12.08C384.243 12.08 386.419 12.3787 388.595 12.976C390.771 13.5307 392.563 14.2773 393.971 15.216L391.987 18.864C389.214 16.944 385.907 15.984 382.067 15.984C379.166 15.984 376.968 16.496 375.475 17.52C374.024 18.544 373.299 19.888 373.299 21.552C373.299 22.832 373.704 23.856 374.515 24.624C375.368 25.392 376.414 25.968 377.651 26.352C378.888 26.6933 380.595 27.056 382.771 27.44C385.459 27.952 387.614 28.464 389.235 28.976C390.856 29.488 392.243 30.3627 393.395 31.6C394.547 32.8373 395.123 34.544 395.123 36.72C395.123 39.664 393.886 42.0107 391.411 43.76C388.979 45.4667 385.587 46.32 381.235 46.32Z" fill="#2D4AF1"/>
</svg>
