<svg width="122" height="20" viewBox="0 0 122 20" fill="none" xmlns="http://www.w3.org/2000/svg">
<mask id="mask0_241_324" style="mask-type:luminance" maskUnits="userSpaceOnUse" x="0" y="0" width="122" height="20">
<path d="M121.759 0.915405H0.969849V19.1898H121.759V0.915405Z" fill="white"/>
</mask>
<g mask="url(#mask0_241_324)">
<mask id="mask1_241_324" style="mask-type:luminance" maskUnits="userSpaceOnUse" x="0" y="1" width="122" height="19">
<path d="M121.659 1.04993H0.969849V19.0064H121.659V1.04993Z" fill="white"/>
</mask>
<g mask="url(#mask1_241_324)">
<path d="M2.62976 1.54993H15.9286C16.0817 1.54993 16.2303 1.57972 16.3719 1.63977C16.5215 1.70324 16.6482 1.78737 16.7538 1.89368C16.8329 1.97343 16.8998 2.06519 16.955 2.17004L17.0057 2.27942C17.0657 2.42284 17.0965 2.57309 17.0966 2.72864V16.1183C17.0965 16.2738 17.0658 16.4239 17.0057 16.5675C16.9424 16.719 16.8592 16.847 16.7538 16.9532C16.6482 17.0596 16.5215 17.1437 16.3719 17.2072C16.2302 17.2672 16.0816 17.297 15.9286 17.297H2.62976C2.47686 17.297 2.32898 17.2672 2.18738 17.2072C2.03776 17.1437 1.91118 17.0596 1.80554 16.9532C1.69995 16.8469 1.61601 16.7191 1.55261 16.5675C1.49265 16.4239 1.4628 16.2737 1.46277 16.1183V2.72375C1.46277 2.5681 1.49258 2.41715 1.55261 2.27356C1.61598 2.12207 1.69997 1.99415 1.80554 1.88782C1.91126 1.78141 2.0351 1.69994 2.17664 1.64368V1.64465L2.18738 1.63977C2.32889 1.57979 2.47678 1.54994 2.62976 1.54993Z" stroke="white"/>
<path d="M6.23956 6.34643C6.23956 6.26004 6.16989 6.18985 6.08414 6.18985H4.15973C4.11685 6.18985 4.08468 6.20602 4.05252 6.23843C4.02572 6.27083 4.00964 6.30323 4.00964 6.34643C4.00964 6.38961 4.02572 6.42197 4.05252 6.45438C4.07933 6.48678 4.11685 6.50296 4.15973 6.50296H6.08414C6.12701 6.50296 6.1645 6.48678 6.19668 6.45977C6.22886 6.42741 6.23956 6.39501 6.23956 6.34643ZM6.65769 5.36382C6.6898 5.3962 6.72199 5.41242 6.76487 5.41242C6.80775 5.41242 6.84531 5.3962 6.87207 5.36382C6.90426 5.33143 6.91501 5.29904 6.91501 5.25585C6.91501 5.21265 6.89888 5.17487 6.87207 5.14788L5.51055 3.77657C5.46767 3.73338 5.41942 3.72258 5.36046 3.73338C5.3015 3.74958 5.26397 3.78736 5.25325 3.84136C5.23717 3.90074 5.25325 3.94933 5.29078 3.99252L6.65234 5.36382H6.65769ZM9.85248 6.34643C9.85248 6.4328 9.92218 6.50296 10.0079 6.50296H11.9323C11.9752 6.50296 12.0074 6.48678 12.0395 6.45438C12.0663 6.42197 12.0824 6.38961 12.0824 6.34643C12.0824 6.30323 12.0663 6.27083 12.0395 6.23843C12.0127 6.20602 11.9752 6.18985 11.9323 6.18985H10.0079C9.92218 6.18985 9.85248 6.26004 9.85248 6.34643ZM9.32717 5.41242C9.36468 5.41242 9.40756 5.3962 9.43437 5.36382L10.7959 3.99252C10.8388 3.94933 10.8495 3.90074 10.8388 3.84136C10.8227 3.78197 10.7852 3.74418 10.7262 3.72798C10.6673 3.71178 10.619 3.72798 10.5761 3.77117L9.2146 5.14247C9.16634 5.19106 9.15559 5.25045 9.18241 5.31524C9.20922 5.38002 9.25748 5.41242 9.32717 5.41242ZM8.04602 4.87253C8.13178 4.87253 8.20148 4.80235 8.20148 4.71596V2.77239C8.20148 2.7292 8.18541 2.69141 8.15322 2.66441C8.12109 2.63202 8.0889 2.62122 8.04064 2.62122C7.99245 2.62122 7.96026 2.63741 7.92813 2.66441C7.89594 2.69141 7.88519 2.7292 7.88519 2.77778V4.71596C7.88519 4.75915 7.90125 4.79695 7.92813 4.82934C7.95488 4.86173 7.99776 4.87253 8.04064 4.87253H8.04602ZM13.9907 14.5418C13.9907 15.1465 13.5029 15.6378 12.9025 15.6378H7.90663L5.64992 13.3649C5.23181 12.9438 5.11388 12.3553 5.38726 12.0799C5.66601 11.7992 6.13237 11.81 6.42181 12.1016L7.05971 12.744C7.09728 12.7818 7.14547 12.798 7.1991 12.7872C7.25267 12.7764 7.29018 12.744 7.31162 12.6954C7.317 12.6739 7.32237 12.6577 7.32237 12.636V7.51253C7.32237 7.08064 7.64403 6.72975 8.04064 6.72975C8.43738 6.72975 8.75898 7.08064 8.75898 7.51253V10.2282V11.0164C8.75898 11.1027 8.82861 11.173 8.91437 11.173C9.00013 11.173 9.06989 11.1027 9.06989 11.0164V10.8382V10.2282C9.06989 9.87728 9.39149 9.59651 9.78816 9.59651C10.1848 9.59651 10.5064 9.88266 10.5064 10.2282V11.0164C10.5064 11.1027 10.5761 11.173 10.6619 11.173C10.7477 11.173 10.8173 11.1027 10.8173 11.0164V10.3577C10.8173 10.0878 11.1443 9.85566 11.5302 9.85566C11.9162 9.85566 12.2486 10.0878 12.2486 10.3577V10.4765V11.0164C12.2486 11.1027 12.3183 11.173 12.404 11.173C12.4898 11.173 12.5595 11.1027 12.5595 11.0164V10.4765C12.5595 10.2929 12.8543 10.0932 13.2724 10.0932C13.6691 10.0932 13.9907 10.4441 13.9907 10.876V13.0302V14.5418ZM14.3016 12.852V10.8814C14.3016 10.2767 13.8406 9.78542 13.2778 9.78542C12.9508 9.78542 12.6667 9.88803 12.479 10.0446C12.3236 9.75311 11.9591 9.54795 11.5357 9.54795C11.2086 9.54795 10.9246 9.67212 10.737 9.86103C10.5815 9.52633 10.217 9.28879 9.79354 9.28879C9.51476 9.28879 9.26279 9.39134 9.08058 9.5587V7.51796C9.08058 6.91329 8.61959 6.42197 8.05139 6.42197C7.4832 6.42197 7.02752 6.91329 7.02752 7.51796V12.2635L6.65234 11.8856C6.23956 11.4699 5.57486 11.4591 5.17821 11.864C4.77618 12.2689 4.89411 13.0409 5.44088 13.5917L7.74586 15.9131C7.77799 15.9455 7.81555 15.9617 7.85306 15.9617C7.85306 15.9617 7.85843 15.9617 7.86375 15.9617H12.9025C13.6744 15.9617 14.3016 15.3301 14.3016 14.5526V12.8628V12.852Z" fill="white"/>
<path d="M6.23956 6.34643C6.23956 6.26004 6.16989 6.18985 6.08414 6.18985H4.15973C4.11685 6.18985 4.08468 6.20602 4.05252 6.23843C4.02572 6.27083 4.00964 6.30323 4.00964 6.34643C4.00964 6.38961 4.02572 6.42197 4.05252 6.45438C4.07933 6.48678 4.11685 6.50296 4.15973 6.50296H6.08414C6.12701 6.50296 6.1645 6.48678 6.19668 6.45977C6.22886 6.42741 6.23956 6.39501 6.23956 6.34643ZM6.65769 5.36382C6.6898 5.3962 6.72199 5.41242 6.76487 5.41242C6.80775 5.41242 6.84531 5.3962 6.87207 5.36382C6.90426 5.33143 6.91501 5.29904 6.91501 5.25585C6.91501 5.21265 6.89888 5.17487 6.87207 5.14788L5.51055 3.77657C5.46767 3.73338 5.41942 3.72258 5.36046 3.73338C5.3015 3.74958 5.26397 3.78736 5.25325 3.84136C5.23717 3.90074 5.25325 3.94933 5.29078 3.99252L6.65234 5.36382H6.65769ZM9.85248 6.34643C9.85248 6.4328 9.92218 6.50296 10.0079 6.50296H11.9323C11.9752 6.50296 12.0074 6.48678 12.0395 6.45438C12.0663 6.42197 12.0824 6.38961 12.0824 6.34643C12.0824 6.30323 12.0663 6.27083 12.0395 6.23843C12.0127 6.20602 11.9752 6.18985 11.9323 6.18985H10.0079C9.92218 6.18985 9.85248 6.26004 9.85248 6.34643ZM9.32717 5.41242C9.36468 5.41242 9.40756 5.3962 9.43437 5.36382L10.7959 3.99252C10.8388 3.94933 10.8495 3.90074 10.8388 3.84136C10.8227 3.78197 10.7852 3.74418 10.7262 3.72798C10.6673 3.71178 10.619 3.72798 10.5761 3.77117L9.2146 5.14247C9.16634 5.19106 9.15559 5.25045 9.18241 5.31524C9.20922 5.38002 9.25748 5.41242 9.32717 5.41242ZM8.04602 4.87253C8.13178 4.87253 8.20148 4.80235 8.20148 4.71596V2.77239C8.20148 2.7292 8.18541 2.69141 8.15322 2.66441C8.12109 2.63202 8.0889 2.62122 8.04064 2.62122C7.99245 2.62122 7.96026 2.63741 7.92813 2.66441C7.89594 2.69141 7.88519 2.7292 7.88519 2.77778V4.71596C7.88519 4.75915 7.90125 4.79695 7.92813 4.82934C7.95488 4.86173 7.99776 4.87253 8.04064 4.87253H8.04602ZM13.9907 14.5418C13.9907 15.1465 13.5029 15.6378 12.9025 15.6378H7.90663L5.64992 13.3649C5.23181 12.9438 5.11388 12.3553 5.38726 12.0799C5.66601 11.7992 6.13237 11.81 6.42181 12.1016L7.05971 12.744C7.09728 12.7818 7.14547 12.798 7.1991 12.7872C7.25267 12.7764 7.29018 12.744 7.31162 12.6954C7.317 12.6739 7.32237 12.6577 7.32237 12.636V7.51253C7.32237 7.08064 7.64403 6.72975 8.04064 6.72975C8.43738 6.72975 8.75898 7.08064 8.75898 7.51253V10.2282V11.0164C8.75898 11.1027 8.82861 11.173 8.91437 11.173C9.00013 11.173 9.06989 11.1027 9.06989 11.0164V10.8382V10.2282C9.06989 9.87728 9.39149 9.59651 9.78816 9.59651C10.1848 9.59651 10.5064 9.88266 10.5064 10.2282V11.0164C10.5064 11.1027 10.5761 11.173 10.6619 11.173C10.7477 11.173 10.8173 11.1027 10.8173 11.0164V10.3577C10.8173 10.0878 11.1443 9.85566 11.5302 9.85566C11.9162 9.85566 12.2486 10.0878 12.2486 10.3577V10.4765V11.0164C12.2486 11.1027 12.3183 11.173 12.404 11.173C12.4898 11.173 12.5595 11.1027 12.5595 11.0164V10.4765C12.5595 10.2929 12.8543 10.0932 13.2724 10.0932C13.6691 10.0932 13.9907 10.4441 13.9907 10.876V13.0302V14.5418ZM14.3016 12.852V10.8814C14.3016 10.2767 13.8406 9.78542 13.2778 9.78542C12.9508 9.78542 12.6667 9.88803 12.479 10.0446C12.3236 9.75311 11.9591 9.54795 11.5357 9.54795C11.2086 9.54795 10.9246 9.67212 10.737 9.86103C10.5815 9.52633 10.217 9.28879 9.79354 9.28879C9.51476 9.28879 9.26279 9.39134 9.08058 9.5587V7.51796C9.08058 6.91329 8.61959 6.42197 8.05139 6.42197C7.4832 6.42197 7.02752 6.91329 7.02752 7.51796V12.2635L6.65234 11.8856C6.23956 11.4699 5.57486 11.4591 5.17821 11.864C4.77618 12.2689 4.89411 13.0409 5.44088 13.5917L7.74586 15.9131C7.77799 15.9455 7.81555 15.9617 7.85306 15.9617C7.85306 15.9617 7.85843 15.9617 7.86375 15.9617H12.9025C13.6744 15.9617 14.3016 15.3301 14.3016 14.5526V12.8628V12.852Z" stroke="white" stroke-width="0.4"/>
<path d="M121.659 12.194C121.659 11.8916 121.605 11.5677 121.503 11.2222C121.395 10.8713 121.229 10.5527 120.994 10.2558C120.763 9.95883 120.458 9.71592 120.077 9.51614C119.697 9.32179 119.241 9.21924 118.699 9.21924H115.43C115.382 9.21924 115.333 9.21924 115.28 9.21924C115.226 9.21924 115.183 9.20305 115.14 9.18143C115.103 9.15987 115.065 9.12206 115.038 9.07888C115.012 9.03026 114.995 8.96008 114.991 8.87372C114.991 8.83054 114.991 8.78192 114.995 8.73874C114.995 8.69018 115.017 8.64694 115.049 8.60919C115.081 8.57138 115.124 8.53357 115.189 8.51195C115.253 8.49039 115.333 8.47421 115.446 8.47421H120.608V6.35245H115.424C115.167 6.35245 114.889 6.39564 114.594 6.48742C114.293 6.5792 114.02 6.725 113.768 6.92472C113.516 7.12988 113.301 7.38904 113.135 7.71293C112.969 8.03689 112.883 8.4364 112.883 8.90609C112.883 9.15443 112.926 9.41896 113.017 9.69968C113.109 9.98583 113.254 10.245 113.457 10.4933C113.661 10.7363 113.923 10.9415 114.245 11.1034C114.567 11.2653 114.969 11.3463 115.43 11.3463H118.699C119.241 11.3463 119.525 11.6325 119.552 12.194C119.552 12.4747 119.477 12.6852 119.332 12.831C119.187 12.9768 118.973 13.0524 118.684 13.0524H112.991V15.1742H118.699C118.904 15.1742 119.113 15.1525 119.337 15.1039C119.562 15.0554 119.782 14.9852 120.002 14.888C120.222 14.7908 120.431 14.6667 120.629 14.5101C120.828 14.3535 121.005 14.1699 121.154 13.9486C121.305 13.7272 121.428 13.4735 121.519 13.182C121.61 12.8904 121.659 12.5611 121.659 12.1994V12.194ZM108.225 15.1742V13.0524H104.441C104.152 13.0524 103.937 12.9768 103.792 12.831C103.648 12.6852 103.572 12.4747 103.572 12.194V6.34706H101.466V12.194C101.466 12.7447 101.562 13.209 101.761 13.5869C101.954 13.9647 102.2 14.2725 102.495 14.5101C102.795 14.7476 103.112 14.9204 103.455 15.0229C103.798 15.1255 104.12 15.1795 104.425 15.1795H108.225V15.1742ZM111.179 16.0217V6.34706H109.072V16.0272C109.072 16.3024 109.002 16.5184 108.863 16.6642C108.724 16.8099 108.515 16.8856 108.231 16.8856H104.43V19.0073H108.231C108.434 19.0073 108.643 18.9857 108.863 18.9371C109.083 18.8939 109.308 18.8183 109.522 18.7211C109.742 18.624 109.951 18.4998 110.15 18.3432C110.348 18.1867 110.525 17.9977 110.675 17.7818C110.825 17.5604 110.948 17.3013 111.04 17.0151C111.131 16.7236 111.179 16.3942 111.179 16.0325V16.0217ZM100.04 12.1886C100.04 11.8863 99.9867 11.5623 99.8792 11.2168C99.7778 10.8659 99.6062 10.5473 99.3701 10.2504C99.1394 9.95345 98.8338 9.71055 98.4533 9.51076C98.0782 9.31641 97.6174 9.2138 97.0757 9.2138H93.8059C93.7576 9.2138 93.7045 9.2138 93.6555 9.2138C93.6024 9.2138 93.5541 9.19761 93.5166 9.17605C93.4732 9.15443 93.4411 9.11669 93.4146 9.07344C93.388 9.02489 93.3717 8.95471 93.3663 8.86828C93.3663 8.8251 93.3662 8.77654 93.3771 8.73336C93.3771 8.68474 93.3983 8.64156 93.4303 8.60375C93.4575 8.56595 93.5058 8.5282 93.5698 8.50658C93.629 8.48496 93.7147 8.46877 93.8216 8.46877H98.9842V6.34706H93.8059C93.5486 6.34706 93.2696 6.39025 92.9695 6.48202C92.6747 6.57377 92.3963 6.71956 92.1445 6.91929C91.8926 7.12451 91.6782 7.3836 91.5115 7.70756C91.3455 8.03145 91.2597 8.43103 91.2597 8.90071C91.2597 9.149 91.3026 9.41359 91.3938 9.6943C91.485 9.98045 91.6293 10.2396 91.828 10.4879C92.0315 10.7309 92.2943 10.936 92.621 11.098C92.9429 11.26 93.3397 11.341 93.8059 11.341H97.0757C97.6174 11.341 97.9013 11.6271 97.9279 12.1886C97.9279 12.4693 97.853 12.6799 97.708 12.8256C97.5637 12.9714 97.3438 13.047 97.0594 13.047H91.3666V15.1687H97.0757C97.2738 15.1687 97.4882 15.1471 97.708 15.0985C97.9333 15.05 98.1531 14.9797 98.373 14.8826C98.5928 14.7855 98.8018 14.6612 99.0005 14.5047C99.204 14.3481 99.3755 14.1645 99.5253 13.9432C99.6757 13.7218 99.7989 13.4681 99.8901 13.1765C99.9813 12.885 100.03 12.5557 100.03 12.194L100.04 12.1886ZM90.1823 8.4634V6.34167H86.4994V3.46407H84.3662V6.34706H81.6273V8.46877H84.3662V15.1742H86.4994V8.47421H90.1823V8.4634ZM80.469 15.1687V13.047H74.7707C74.4869 13.047 74.2725 12.9714 74.1281 12.8256C73.9832 12.6799 73.9137 12.4693 73.9137 12.1886V9.3326C73.9137 9.0357 73.9832 8.81973 74.1281 8.67931C74.2725 8.53895 74.4821 8.46877 74.755 8.46877H80.469V6.34706H74.755C74.3957 6.34706 74.069 6.39564 73.7845 6.48742C73.4952 6.5792 73.2488 6.698 73.029 6.85454C72.8091 7.00571 72.6213 7.18388 72.4715 7.3836C72.3163 7.58876 72.1925 7.79936 72.091 8.01527C71.9944 8.23124 71.9249 8.45796 71.8766 8.67931C71.8283 8.90071 71.8066 9.11125 71.8066 9.31641V12.1886C71.8066 12.7393 71.9032 13.2036 72.1019 13.5814C72.3 13.9594 72.5464 14.2671 72.8363 14.5047C73.131 14.7422 73.4523 14.915 73.7954 15.0175C74.1438 15.1202 74.4603 15.1742 74.7496 15.1742H80.4635L80.469 15.1687ZM70.563 9.26242C70.563 8.72793 70.467 8.27442 70.2683 7.90191C70.0757 7.52939 69.8341 7.22706 69.5448 6.9949C69.2555 6.76274 68.9445 6.59539 68.6069 6.49281C68.2686 6.39025 67.9522 6.33623 67.6629 6.33623H63.8574C63.3265 6.33623 62.876 6.43344 62.5064 6.63314C62.1368 6.82755 61.8366 7.07051 61.6059 7.36198C61.3752 7.65356 61.2091 7.97209 61.1077 8.30685C61.0055 8.64694 60.952 8.96546 60.952 9.25704V12.2372C60.952 12.7717 61.0485 13.2252 61.2466 13.5977C61.4398 13.9702 61.6808 14.2725 61.9707 14.5047C62.26 14.7368 62.571 14.9042 62.9086 15.0067C63.2462 15.1093 63.5573 15.1633 63.852 15.1633H67.6581V13.1388H63.8677C63.611 13.1388 63.3912 13.0578 63.2142 12.9013C63.0373 12.7447 62.9515 12.5233 62.9515 12.2425V9.2786C62.9515 9.01945 63.0318 8.7981 63.187 8.61994C63.3429 8.44178 63.5627 8.35541 63.852 8.35541H67.6581C67.9045 8.35541 68.1189 8.4364 68.2904 8.59294C68.4673 8.74955 68.5531 8.96546 68.5531 9.24623C68.5531 9.50539 68.4728 9.72673 68.317 9.90484C68.1617 10.083 67.9365 10.1694 67.6526 10.1694H63.8465V12.1832H67.6526C68.1781 12.1832 68.6334 12.086 68.9982 11.8863C69.3678 11.6919 69.668 11.4489 69.8987 11.1574C70.1288 10.8659 70.2949 10.5473 70.397 10.2126C70.499 9.87246 70.5522 9.55394 70.5522 9.26242H70.563ZM59.778 8.4634V6.34167H55.0182C54.8252 6.34167 54.6108 6.36324 54.391 6.41182C54.1655 6.46041 53.9458 6.53059 53.726 6.62776C53.5063 6.725 53.2973 6.84911 53.0989 7.00571C52.8952 7.16225 52.7183 7.34579 52.5685 7.56714C52.413 7.78855 52.2895 8.04226 52.1986 8.32841C52.1072 8.61994 52.0591 8.9439 52.0591 9.31098V15.1633H54.1655V9.32179C54.1655 9.04107 54.2408 8.83054 54.3853 8.69018C54.5301 8.54433 54.7498 8.47421 55.0342 8.47421H59.778V8.4634ZM50.0863 15.1687V6.34706H47.9798V15.1742H50.0863V15.1687ZM50.0863 4.52764V2.61646H47.9798V4.53304H50.0863V4.52764ZM44.0024 8.36079V10.272C44.0024 10.6877 43.938 11.0711 43.8041 11.4111C43.6754 11.7513 43.4878 12.0428 43.2412 12.2858C42.9947 12.5287 42.7051 12.7123 42.3675 12.8472C42.0298 12.9822 41.6545 13.047 41.2418 13.047H36.5997V5.59121H41.2418C41.6545 5.59121 42.0298 5.66142 42.3675 5.79098C42.7051 5.92594 42.9947 6.10949 43.2412 6.35784C43.4824 6.60082 43.6701 6.89229 43.8041 7.23243C43.938 7.57801 44.0024 7.9559 44.0024 8.3716V8.36079ZM46.1092 10.272V8.36079C46.1092 7.65356 45.9857 7.00027 45.7393 6.39564C45.4926 5.79637 45.1549 5.27808 44.7207 4.84077C44.2865 4.40887 43.7773 4.06874 43.1769 3.82579C42.5819 3.58285 41.9386 3.45868 41.2364 3.45868H35.5437C35.3936 3.45868 35.2542 3.48567 35.1256 3.53965C34.9969 3.59365 34.8843 3.66922 34.7878 3.76641C34.6914 3.86899 34.6217 3.97696 34.5681 4.11193C34.5145 4.24151 34.4877 4.38188 34.4877 4.52764V14.1052C34.4877 14.2563 34.5145 14.4021 34.5681 14.5317C34.6217 14.6612 34.6968 14.7746 34.7878 14.8718C34.8843 14.969 34.9916 15.0392 35.1256 15.0932C35.2542 15.1471 35.3936 15.1742 35.5437 15.1742H41.2364C41.9332 15.1742 42.5765 15.05 43.1769 14.807C43.7719 14.5641 44.2865 14.224 44.7207 13.792C45.1495 13.3601 45.4926 12.8418 45.7393 12.2425C45.9857 11.6433 46.1092 10.9901 46.1092 10.272ZM32.8528 9.26779C32.8528 8.73336 32.7563 8.2798 32.5579 7.90728C32.365 7.53483 32.1238 7.23243 31.8343 7.00027C31.5448 6.76818 31.2339 6.60082 30.8962 6.4982C30.5585 6.39564 30.2476 6.34167 29.9528 6.34167H26.1469C25.6162 6.34167 25.166 6.43883 24.7961 6.63863C24.4262 6.83292 24.126 7.07589 23.8955 7.36741C23.665 7.65894 23.4989 7.97752 23.397 8.31223C23.2951 8.65237 23.2416 8.97083 23.2416 9.26242V12.2425C23.2416 12.7771 23.338 13.2305 23.5364 13.603C23.7294 13.9756 23.9706 14.278 24.2601 14.5101C24.5495 14.7422 24.8604 14.9096 25.1981 15.0122C25.5358 15.1147 25.8467 15.1687 26.1415 15.1687H29.9474V13.1442H26.1576C25.9003 13.1442 25.6806 13.0632 25.509 12.9066C25.3321 12.75 25.2463 12.5287 25.2463 12.248V9.28404C25.2463 9.02489 25.3268 8.80348 25.4822 8.62531C25.6377 8.44721 25.8628 8.36079 26.1469 8.36079H29.9528C30.1993 8.36079 30.4138 8.44177 30.5853 8.59838C30.7622 8.75492 30.848 8.97083 30.848 9.25161C30.848 9.51076 30.7675 9.73211 30.6121 9.91027C30.4567 10.0884 30.2315 10.1748 29.9474 10.1748H26.1415V12.1886H29.9474C30.4781 12.1886 30.9284 12.0914 31.2982 11.8916C31.6681 11.6973 31.9683 11.4544 32.1988 11.1628C32.4293 10.8713 32.5954 10.5527 32.6973 10.218C32.7992 9.8779 32.8528 9.55932 32.8528 9.26779Z" fill="white"/>
</g>
</g>
</svg>
